<?xml version="1.0" encoding="iso-8859-1"?>
<!-- Generator: Adobe Illustrator 19.0.0, SVG Export Plug-In . SVG Version: 6.00 Build 0)  -->
<svg version="1.1" id="Layer_1" xmlns="http://www.w3.org/2000/svg" xmlns:xlink="http://www.w3.org/1999/xlink" x="0px" y="0px"
	 viewBox="0 0 512 512" style="enable-background:new 0 0 512 512;" xml:space="preserve">
<g>
	<g>
		<g>
			<path fill='#6e6e6e' d="M266.888,364.948h43.261c12.818,0,23.246-10.428,23.246-23.246v-53.525c0-12.819-10.428-23.246-23.246-23.246H290.53
				V145.862h19.619c12.818,0,23.246-10.428,23.246-23.246V69.087c0.001-12.818-10.428-23.246-23.246-23.246h-43.261
				c-30.952,0-56.133,25.181-56.133,56.134v206.838C210.755,339.766,235.936,364.948,266.888,364.948z M234.569,101.975
				c0-17.821,14.498-32.32,32.319-32.32h42.695v52.39h-30.958c-6.576,0-11.907,5.332-11.907,11.907v142.883
				c0,6.575,5.331,11.907,11.907,11.907h30.958v52.39h-42.695c-17.821,0-32.319-14.499-32.319-32.32V101.975z"/>
			<path fill='#6e6e6e' d="M446.484,398.868l0.026,0.013V11.907C446.511,5.332,441.18,0,434.604,0H107.759C84.452,0,65.49,18.962,65.49,42.269
				v427.365c-0.088,11.302,4.244,21.931,12.199,29.932c7.975,8.019,18.625,12.431,29.978,12.431c0.031,0,0.063,0,0.094,0h23.129
				c0.03,0,0.06,0.004,0.089,0.004c0.029,0,0.057-0.004,0.085-0.004h303.541c4.477,0,8.577-2.511,10.609-6.501
				c2.033-3.99,1.655-8.783-0.976-12.405c-18.95-26.081-18.95-61.13,0-87.211C445.746,403.803,446.487,401.342,446.484,398.868z
				 M115.207,488.183h-7.473c-0.014,0-0.027,0-0.042,0c-4.99,0-9.648-1.919-13.117-5.408c-3.439-3.458-5.31-8.059-5.272-13.048
				v-40.722c0-4.868,1.891-9.435,5.324-12.861c3.464-3.455,8.101-5.357,13.09-5.357c0.014,0,0.027,0,0.042,0h7.448
				C109.353,436.001,109.353,462.97,115.207,488.183z M414.192,488.183H139.804c-6.751-24.763-6.751-52.632,0-77.395h274.387
				C403.531,435.491,403.531,463.479,414.192,488.183z M422.699,386.974h-284.59c0.002-0.092,0.014-0.18,0.014-0.273v-32.523
				c0-6.575-5.331-11.907-11.907-11.907s-11.907,5.332-11.907,11.907v32.523c0,0.092,0.012,0.181,0.014,0.273h-6.537
				c-0.032,0-0.062,0-0.094,0c-6.486,0-12.737,1.443-18.394,4.165l0.007-0.011V42.269c0-10.177,8.279-18.456,18.456-18.456h6.549
				v230.994c0,6.575,5.331,11.907,11.907,11.907c6.576,0,11.907-5.332,11.907-11.907V23.814h284.575V386.974z"/>
			<path fill='#6e6e6e' d="M126.216,291.421c-6.576,0-11.907,5.332-11.907,11.907v4.167c0,6.575,5.331,11.907,11.907,11.907
				s11.907-5.332,11.907-11.907v-4.167C138.123,296.753,132.792,291.421,126.216,291.421z"/>
		</g>
	</g>
</g>
<g>
</g>
<g>
</g>
<g>
</g>
<g>
</g>
<g>
</g>
<g>
</g>
<g>
</g>
<g>
</g>
<g>
</g>
<g>
</g>
<g>
</g>
<g>
</g>
<g>
</g>
<g>
</g>
<g>
</g>
</svg>
