<svg id="visual" viewBox="0 0 900 600" width="900" height="600" xmlns="http://www.w3.org/2000/svg" xmlns:xlink="http://www.w3.org/1999/xlink" version="1.1"><g transform="translate(458.5311859995161 296.2562901159439)"><path d="M150.2 -170.1C196.6 -140 237.7 -94.6 233.5 -51.1C229.4 -7.6 180.1 34 150.3 87.9C120.5 141.8 110.2 208.1 79.8 219C49.5 229.9 -0.9 185.4 -46.9 156.6C-92.8 127.8 -134.3 114.7 -175 82.5C-215.7 50.3 -255.6 -0.9 -250.4 -46.5C-245.2 -92.2 -194.9 -132.3 -145.7 -161.9C-96.4 -191.6 -48.2 -210.8 1.8 -213C51.9 -215.1 103.7 -200.3 150.2 -170.1" fill="#F7770F"></path></g></svg>