<svg id="visual" viewBox="0 0 900 200" width="900" height="200" xmlns="http://www.w3.org/2000/svg" xmlns:xlink="http://www.w3.org/1999/xlink" version="1.1"><path d="M0 107L25 95.5C50 84 100 61 150 51.3C200 41.7 250 45.3 300 57.8C350 70.3 400 91.7 450 87.8C500 84 550 55 600 53C650 51 700 76 750 76.5C800 77 850 53 875 41L900 29L900 201L875 201C850 201 800 201 750 201C700 201 650 201 600 201C550 201 500 201 450 201C400 201 350 201 300 201C250 201 200 201 150 201C100 201 50 201 25 201L0 201Z" fill="#ed6907"></path><path d="M0 116L25 114.7C50 113.3 100 110.7 150 103.5C200 96.3 250 84.7 300 76C350 67.3 400 61.7 450 67C500 72.3 550 88.7 600 92.8C650 97 700 89 750 94.2C800 99.3 850 117.7 875 126.8L900 136L900 201L875 201C850 201 800 201 750 201C700 201 650 201 600 201C550 201 500 201 450 201C400 201 350 201 300 201C250 201 200 201 150 201C100 201 50 201 25 201L0 201Z" fill="#a5501b"></path><path d="M0 133L25 136.8C50 140.7 100 148.3 150 149.3C200 150.3 250 144.7 300 145.8C350 147 400 155 450 149.3C500 143.7 550 124.3 600 123.3C650 122.3 700 139.7 750 140.5C800 141.3 850 125.7 875 117.8L900 110L900 201L875 201C850 201 800 201 750 201C700 201 650 201 600 201C550 201 500 201 450 201C400 201 350 201 300 201C250 201 200 201 150 201C100 201 50 201 25 201L0 201Z" fill="#613820"></path><path d="M0 130L25 137.3C50 144.7 100 159.3 150 168.2C200 177 250 180 300 179.5C350 179 400 175 450 167.7C500 160.3 550 149.7 600 147.2C650 144.7 700 150.3 750 159C800 167.7 850 179.3 875 185.2L900 191L900 201L875 201C850 201 800 201 750 201C700 201 650 201 600 201C550 201 500 201 450 201C400 201 350 201 300 201C250 201 200 201 150 201C100 201 50 201 25 201L0 201Z" fill="#1f1f1f"></path></svg>